<svg t="1589989460430" class="icon" viewBox="0 0 1024 1024" version="1.1" xmlns="http://www.w3.org/2000/svg" p-id="25871" width="200" height="200"><path d="M484.425412 1024l470.031941-203.056275v-75.37226H839.825482l-355.40007 153.530354-355.400071-153.530354H14.393471v75.37226l470.031941 203.056275zM484.425412 0L14.393471 203.056275v75.37226h114.63187v-0.051589l355.400071-153.478765L839.825482 278.376946v0.051589h114.631871V203.056275L484.425412 0z" p-id="25872" fill="#ffffff"></path><path d="M839.515945 376.758124h114.941408v387.43715h-114.941408zM14.393471 453.936017h114.941407v310.207668H14.393471zM14.393471 325.168623h114.941407v105.190992H14.393471z" p-id="25873" fill="#ffffff"></path><path d="M1009.55494 323.362991v114.941407h-225.188171V323.362991z" p-id="25874" fill="#ffffff"></path><path d="M484.425412 548.086856m-164.725276 0a164.725276 164.725276 0 1 0 329.450552 0 164.725276 164.725276 0 1 0-329.450552 0Z" p-id="25875" fill="#ffffff"></path></svg>